<svg width="27" height="30" viewBox="0 0 27 30" fill="none" xmlns="http://www.w3.org/2000/svg">
<path d="M12.0149 0.815399C12.449 0.501903 12.9682 0.333496 13.5005 0.333496C14.0328 0.333496 14.5519 0.501903 14.986 0.815399L26.2539 8.95062C27.6538 9.96164 26.9529 12.2071 25.2373 12.211H1.76943C0.0480464 12.211 -0.656682 9.9636 0.748924 8.95062L12.0149 0.815399ZM13.5014 8.04736C13.9271 8.04736 14.3353 7.8753 14.6363 7.56903C14.9372 7.26276 15.1063 6.84737 15.1063 6.41424C15.1063 5.98111 14.9372 5.56572 14.6363 5.25945C14.3353 4.95318 13.9271 4.78112 13.5014 4.78112C13.0758 4.78112 12.6676 4.95318 12.3666 5.25945C12.0656 5.56572 11.8965 5.98111 11.8965 6.41424C11.8965 6.84737 12.0656 7.26276 12.3666 7.56903C12.6676 7.8753 13.0758 8.04736 13.5014 8.04736ZM2.91125 14.1723V22.0097H6.76222V14.1723H2.91125ZM0.0230148 28.213C0.0230148 25.8676 1.89074 23.9671 4.19362 23.9671H22.8073C23.9138 23.9676 24.9748 24.4151 25.7572 25.2112C26.5396 26.0074 26.9793 27.0871 26.9798 28.213V28.8654C26.9798 29.1253 26.8784 29.3745 26.6979 29.5582C26.5173 29.7419 26.2724 29.8451 26.0171 29.8451H0.985759C0.730423 29.8451 0.485546 29.7419 0.304996 29.5582C0.124447 29.3745 0.0230148 29.1253 0.0230148 28.8654V28.213ZM24.0916 14.1703V22.0077H20.2406V14.1723H24.0916V14.1703ZM18.3151 14.1703V22.0077H14.4642V14.1723H18.3151V14.1703ZM12.5387 14.1703V22.0077H8.68771V14.1723H12.5387V14.1703Z" fill="#020231" fill-opacity="0.6"/>
</svg>
