<svg width="32" height="26" viewBox="0 0 32 26" fill="none" xmlns="http://www.w3.org/2000/svg">
<path d="M0 22.619C0 24.1176 1.19444 25.3333 2.66667 25.3333H29.3333C30.8056 25.3333 32 24.1176 32 22.619V12.6667H0V22.619ZM10.6667 18.7738C10.6667 18.4006 10.9667 18.0952 11.3333 18.0952H18.8889C19.2556 18.0952 19.5556 18.4006 19.5556 18.7738V21.0357C19.5556 21.4089 19.2556 21.7143 18.8889 21.7143H11.3333C10.9667 21.7143 10.6667 21.4089 10.6667 21.0357V18.7738ZM3.55556 18.7738C3.55556 18.4006 3.85556 18.0952 4.22222 18.0952H8.22222C8.58889 18.0952 8.88889 18.4006 8.88889 18.7738V21.0357C8.88889 21.4089 8.58889 21.7143 8.22222 21.7143H4.22222C3.85556 21.7143 3.55556 21.4089 3.55556 21.0357V18.7738ZM32 2.71429V5.42857H0V2.71429C0 1.21577 1.19444 0 2.66667 0H29.3333C30.8056 0 32 1.21577 32 2.71429Z" fill="#020231" fill-opacity="0.6"/>
</svg>
