<svg width="32" height="24" viewBox="0 0 32 24" fill="none" xmlns="http://www.w3.org/2000/svg">
<path d="M31.0575 1.99089C29.118 1.16079 27.1771 0.844971 25.2371 0.844971C19.0787 0.844461 12.9208 4.02558 6.76239 4.02558C5.21792 4.02558 3.67444 3.82558 2.12997 3.32558C1.95647 3.26946 1.78247 3.24293 1.61247 3.24293C0.751988 3.24293 0 3.92252 0 4.86589V21.0526C0 21.697 0.361494 22.3077 0.941985 22.5557C2.88145 23.3863 4.82242 23.7021 6.76239 23.7021C12.9208 23.7021 19.0792 20.521 25.2376 20.521C26.7821 20.521 28.3256 20.721 29.87 21.221C30.0435 21.2771 30.2175 21.3036 30.3875 21.3036C31.248 21.3036 32 20.6241 32 19.6807V3.49446C31.9995 2.84956 31.638 2.23936 31.0575 1.99089ZM15.9998 17.1715C13.7903 17.1715 11.9998 14.9781 11.9998 12.2735C11.9998 9.56844 13.7908 7.37558 15.9998 7.37558C18.2087 7.37558 19.9997 9.56844 19.9997 12.2735C19.9997 14.9792 18.2082 17.1715 15.9998 17.1715Z" fill="#020231" fill-opacity="0.6"/>
</svg>
