<svg width="30" height="39" viewBox="0 0 30 39" fill="none" xmlns="http://www.w3.org/2000/svg">
<path d="M13.4584 38.2131C2.10703 22.1684 0 20.5217 0 14.625C0 6.54781 6.7157 0 15 0C23.2843 0 30 6.54781 30 14.625C30 20.5217 27.893 22.1684 16.5416 38.2131C15.7966 39.2623 14.2033 39.2623 13.4584 38.2131ZM15 20.7187C18.4518 20.7187 21.25 17.9905 21.25 14.625C21.25 11.2595 18.4518 8.53125 15 8.53125C11.5482 8.53125 8.75 11.2595 8.75 14.625C8.75 17.9905 11.5482 20.7187 15 20.7187Z" fill="#0077B6"/>
</svg>
