<svg width="31" height="31" viewBox="0 0 31 31" fill="none" xmlns="http://www.w3.org/2000/svg">
<path d="M15.2107 9.88965C12.1052 9.88965 9.60034 12.3945 9.60034 15.5C9.60034 18.6055 12.1052 21.1103 15.2107 21.1103C18.3162 21.1103 20.821 18.6055 20.821 15.5C20.821 12.3945 18.3162 9.88965 15.2107 9.88965ZM15.2107 19.1475C13.2039 19.1475 11.5632 17.5117 11.5632 15.5C11.5632 13.4883 13.199 11.8525 15.2107 11.8525C17.2224 11.8525 18.8582 13.4883 18.8582 15.5C18.8582 17.5117 17.2175 19.1475 15.2107 19.1475ZM22.3591 9.66016C22.3591 10.3877 21.7732 10.9688 21.0505 10.9688C20.323 10.9688 19.7419 10.3828 19.7419 9.66016C19.7419 8.9375 20.3279 8.35156 21.0505 8.35156C21.7732 8.35156 22.3591 8.9375 22.3591 9.66016ZM26.075 10.9883C25.9919 9.23535 25.5916 7.68262 24.3074 6.40332C23.0281 5.12402 21.4753 4.72363 19.7224 4.63574C17.9158 4.5332 12.5007 4.5332 10.6941 4.63574C8.94604 4.71875 7.39331 5.11914 6.10913 6.39844C4.82495 7.67773 4.42944 9.23047 4.34155 10.9834C4.23901 12.79 4.23901 18.2051 4.34155 20.0117C4.42456 21.7646 4.82495 23.3174 6.10913 24.5967C7.39331 25.876 8.94116 26.2764 10.6941 26.3643C12.5007 26.4668 17.9158 26.4668 19.7224 26.3643C21.4753 26.2812 23.0281 25.8809 24.3074 24.5967C25.5867 23.3174 25.9871 21.7646 26.075 20.0117C26.1775 18.2051 26.1775 12.7949 26.075 10.9883ZM23.741 21.9502C23.3601 22.9072 22.6228 23.6445 21.6609 24.0303C20.2205 24.6016 16.8025 24.4697 15.2107 24.4697C13.6189 24.4697 10.196 24.5967 8.7605 24.0303C7.80347 23.6494 7.06616 22.9121 6.68042 21.9502C6.10913 20.5098 6.24097 17.0918 6.24097 15.5C6.24097 13.9082 6.11401 10.4854 6.68042 9.0498C7.06128 8.09277 7.79858 7.35547 8.7605 6.96973C10.2009 6.39844 13.6189 6.53027 15.2107 6.53027C16.8025 6.53027 20.2253 6.40332 21.6609 6.96973C22.6179 7.35059 23.3552 8.08789 23.741 9.0498C24.3123 10.4902 24.1804 13.9082 24.1804 15.5C24.1804 17.0918 24.3123 20.5146 23.741 21.9502Z" fill="#F5F5FF"/>
</svg>
