<svg width="31" height="31" viewBox="0 0 31 31" fill="none" xmlns="http://www.w3.org/2000/svg">
<path d="M9.28613 26.4373H4.75098V11.8328H9.28613V26.4373ZM7.01611 9.84058C5.56592 9.84058 4.38965 8.6394 4.38965 7.18921C4.38965 6.49263 4.66636 5.82458 5.15892 5.33202C5.65148 4.83946 6.31953 4.56274 7.01611 4.56274C7.7127 4.56274 8.38075 4.83946 8.8733 5.33202C9.36586 5.82458 9.64258 6.49263 9.64258 7.18921C9.64258 8.6394 8.46582 9.84058 7.01611 9.84058ZM26.2598 26.4373H21.7344V19.3279C21.7344 17.6335 21.7002 15.4607 19.3765 15.4607C17.0186 15.4607 16.6572 17.3015 16.6572 19.2058V26.4373H12.127V11.8328H16.4766V13.825H16.54C17.1455 12.6775 18.6245 11.4666 20.8311 11.4666C25.4209 11.4666 26.2646 14.489 26.2646 18.4148V26.4373H26.2598Z" fill="#F5F5FF"/>
</svg>
