<svg width="34" height="29" viewBox="0 0 34 29" fill="none" xmlns="http://www.w3.org/2000/svg">
<path d="M26.8198 9.40799C26.8357 9.63006 26.8357 9.85218 26.8357 10.0742C26.8357 16.8477 21.6803 24.6523 12.2577 24.6523C9.35474 24.6523 6.65806 23.8115 4.38965 22.3522C4.8021 22.3997 5.19863 22.4156 5.62695 22.4156C8.02222 22.4156 10.2272 21.6066 11.988 20.2265C9.73545 20.1789 7.84775 18.7037 7.19736 16.6732C7.51465 16.7208 7.83188 16.7525 8.16504 16.7525C8.62505 16.7525 9.08511 16.689 9.51338 16.5781C7.16567 16.1021 5.40483 14.04 5.40483 11.5495V11.4861C6.08691 11.8668 6.88013 12.1047 7.7208 12.1364C6.34072 11.2163 5.43657 9.64593 5.43657 7.86927C5.43657 6.91751 5.69033 6.04505 6.13452 5.28362C8.65674 8.39275 12.448 10.4232 16.6992 10.6453C16.6199 10.2646 16.5723 9.86805 16.5723 9.47146C16.5723 6.64783 18.8566 4.34773 21.696 4.34773C23.1713 4.34773 24.5038 4.96639 25.4397 5.96575C26.5977 5.74368 27.7081 5.31536 28.6916 4.72845C28.3108 5.91819 27.5019 6.91756 26.4391 7.55203C27.4702 7.44104 28.4695 7.15545 29.3895 6.75891C28.6917 7.7741 27.8192 8.67825 26.8198 9.40799Z" fill="#F5F5FF"/>
</svg>
