<svg width="236" height="72" viewBox="0 0 236 72" fill="none" xmlns="http://www.w3.org/2000/svg">
<g clip-path="url(#clip0_2_327)">
<path d="M58.0566 0L34.1373 20.448L39.2462 24.84L52.2509 13.68V58.32L30.4216 39.6H46.4453L0 0V72L23.9193 51.552L18.8103 47.16L5.80566 58.32V13.68L27.6349 32.4H11.6113L58.0566 72V0Z" fill="#BDBFC1"/>
<path d="M95.2704 54V30.6L87.0845 47.304H86.4458L78.2599 30.672V54H72.5703V18H78.434L86.7942 34.992L95.0963 18H100.96V54H95.2704Z" fill="#BDBFC1"/>
<path fill-rule="evenodd" clip-rule="evenodd" d="M120.699 46.0796L124.995 49.1756C123.022 52.7036 119.945 54.6476 115.939 54.6476C108.972 54.6476 104.56 48.7436 104.56 41.0396C104.56 33.4076 108.972 27.4316 115.532 27.4316C121.686 27.4316 126.041 33.4796 126.041 41.0396C126.041 42.0476 125.982 42.9116 125.808 43.7756H110.191C111.004 47.2316 113.268 48.6716 116.055 48.6716C118.145 48.6716 119.77 47.5916 120.699 46.0796ZM115.532 33.5516C112.687 33.5516 110.714 35.4236 110.075 38.7356H120.699C120.061 35.0636 117.796 33.5516 115.532 33.5516Z" fill="#BDBFC1"/>
<path fill-rule="evenodd" clip-rule="evenodd" d="M150.308 54H144.967V50.976C143.458 53.352 141.252 54.72 138.233 54.72C132.659 54.72 128.131 48.816 128.131 41.112C128.131 33.48 132.717 27.504 138.233 27.504C141.252 27.504 143.458 28.872 144.967 31.248V18H150.308V54ZM139.22 33.84C135.91 33.84 133.472 36.792 133.472 41.112C133.472 45.432 135.91 48.384 139.22 48.384C142.529 48.384 144.967 45.432 144.967 41.112C144.967 36.792 142.529 33.84 139.22 33.84Z" fill="#BDBFC1"/>
<path fill-rule="evenodd" clip-rule="evenodd" d="M175.911 53.9997H170.57V50.9757C169.06 53.2797 166.854 54.7197 163.835 54.7197C158.32 54.7197 153.733 48.8157 153.733 41.1117C153.733 33.4797 158.32 27.5037 163.835 27.5037C166.854 27.5037 169.118 28.9437 170.57 31.2477V28.2237H175.911V28.2957V53.9997ZM164.822 33.8397C161.571 33.8397 159.075 36.7917 159.075 41.1117C159.075 45.4317 161.513 48.3837 164.822 48.3837C168.073 48.3837 170.57 45.4317 170.57 41.1117C170.57 36.7917 168.131 33.8397 164.822 33.8397Z" fill="#BDBFC1"/>
<path fill-rule="evenodd" clip-rule="evenodd" d="M192.399 54.72C189.38 54.72 187.174 53.352 185.664 50.976V54H180.323V18H185.664V31.32C187.174 28.944 189.38 27.576 192.399 27.576C197.972 27.576 202.501 33.48 202.501 41.112C202.501 48.744 197.914 54.72 192.399 54.72ZM191.412 33.84C188.161 33.84 185.664 36.792 185.664 41.112C185.664 45.432 188.103 48.384 191.412 48.384C194.721 48.384 197.16 45.432 197.16 41.112C197.16 36.792 194.721 33.84 191.412 33.84Z" fill="#BDBFC1"/>
<path d="M211.209 16.4158V53.9998H205.868V16.4158H211.209Z" fill="#BDBFC1"/>
<path fill-rule="evenodd" clip-rule="evenodd" d="M230.426 46.0796L234.722 49.1756C232.748 52.7036 229.671 54.6476 225.665 54.6476C218.698 54.6476 214.286 48.7436 214.286 41.0396C214.286 33.4076 218.698 27.4316 225.259 27.4316C231.413 27.4316 235.767 33.4796 235.767 41.0396C235.767 42.0476 235.709 42.9116 235.535 43.7756H219.918C220.672 47.2316 222.995 48.6716 225.781 48.6716C227.871 48.6716 229.497 47.5916 230.426 46.0796ZM225.259 33.5516C222.414 33.5516 220.44 35.4236 219.802 38.7356H230.426C229.787 35.0636 227.523 33.5516 225.259 33.5516Z" fill="#BDBFC1"/>
</g>
<defs>
<clipPath id="clip0_2_327">
<rect width="236" height="72" fill="white"/>
</clipPath>
</defs>
</svg>
