<svg width="256" height="78" viewBox="0 0 256 78" fill="none" xmlns="http://www.w3.org/2000/svg">
<path fill-rule="evenodd" clip-rule="evenodd" d="M22.2223 10.9209C23.7501 9.18708 25.1425 7.70731 26.4727 6.46823C3.99039 5.74171 10.5348 22.0504 3.20871 38.6243C-5.2277 57.712 4.20135 64.9861 18.2517 67.2525C16.3041 64.9459 14.7141 62.3073 13.5038 59.4592C4.39456 47.9509 8.06092 26.9845 22.2223 10.9209Z" fill="#BDBFC1"/>
<path fill-rule="evenodd" clip-rule="evenodd" d="M76.3203 31.2534C74.2284 37.1658 70.3889 43.8003 64.9615 50.33C60.7311 55.4178 56.0276 59.4248 51.1732 62.3264C45.5615 65.9746 38.5997 68.1274 30.8161 68.1274C26.4591 68.1274 22.1754 67.8844 18.2515 67.2515C20.5699 69.9949 23.3879 72.2725 26.6657 73.8615C46.9917 83.7251 48.2752 65.4018 69.7804 56.1042C81.8565 50.8827 81.9009 40.6758 76.3203 31.2534Z" fill="#BDBFC1"/>
<path fill-rule="evenodd" clip-rule="evenodd" d="M51.1663 12.1853C54.1642 12.7335 57.0089 13.723 59.556 15.1671C66.3824 19.0426 72.6004 24.9728 76.32 31.2529C79.9819 20.9035 78.2765 12.7669 70.2642 11.2939C61.4592 9.67814 54.575 9.15888 47.9596 4.52346C39.8119 -1.18614 32.6701 0.696999 26.4722 6.469C26.9096 6.48237 27.356 6.50243 27.8157 6.52917C36.4142 7.03728 44.6197 8.71763 51.1663 12.1853Z" fill="#BDBFC1"/>
<path fill-rule="evenodd" clip-rule="evenodd" d="M22.2223 10.9207C8.06094 26.9842 4.39458 47.9506 13.5039 59.459C9.41334 49.8249 9.69759 37.8084 15.4625 28.2144C23.1372 15.4402 38.531 9.87105 51.1668 12.1865C44.6202 8.71665 36.4147 7.03853 27.8184 6.52819C27.3565 6.50145 26.9102 6.48362 26.4727 6.46802C25.1425 7.7071 23.7501 9.18687 22.2223 10.9207Z" fill="#BDBFC1"/>
<path fill-rule="evenodd" clip-rule="evenodd" d="M59.5553 15.1681C57.0082 13.7218 54.1635 12.7345 51.1655 12.1863C59.7863 16.7526 65.5223 24.4256 65.4579 36.6471C65.4002 47.2506 59.9417 56.6218 51.1722 62.3269C56.0266 59.4253 60.7323 55.4183 64.9605 50.3305C70.3901 43.8008 74.2274 37.1663 76.3193 31.2539C72.5996 24.9738 66.3817 19.0414 59.5553 15.1681Z" fill="#BDBFC1"/>
<path fill-rule="evenodd" clip-rule="evenodd" d="M49.7476 56.5163C40.0143 62.7919 27.0366 59.9928 20.7587 50.2629C14.4808 40.5329 17.5853 28.0039 27.0122 21.2781C37.5538 13.7589 51.0734 16.7251 56.0011 27.5315C60.8067 38.0681 59.4787 50.2406 49.7476 56.5163ZM51.1666 12.1855C38.5309 9.87226 23.1371 15.4392 15.4624 28.2134C9.69745 37.8074 9.41098 49.8261 13.5037 59.458C14.714 62.3061 16.3018 64.9469 18.2516 67.2535C22.1755 67.8864 26.4592 68.1271 30.814 68.1271C38.5998 68.1271 45.5616 65.9743 51.1711 62.3261C59.9428 56.6232 65.4013 47.2499 65.4568 36.6463C65.5234 24.4248 59.7851 16.7519 51.1666 12.1855Z" fill="#BDBFC1"/>
<path fill-rule="evenodd" clip-rule="evenodd" d="M212.107 28.632C209.91 28.632 207.796 29.2158 205.824 30.368C203.85 31.5202 202.289 33.0913 201.183 35.0391C200.075 36.9891 199.513 39.1976 199.513 41.6045C199.513 45.2058 200.721 48.1587 203.204 50.6369C205.689 53.1128 208.602 54.3185 212.107 54.3185C214.421 54.3185 216.59 53.748 218.558 52.6225C220.521 51.5016 222.071 49.946 223.17 48.0005C224.271 46.0482 224.829 43.8464 224.829 41.4529C224.829 39.0773 224.271 36.9022 223.172 34.9878C222.073 33.0757 220.503 31.5224 218.502 30.3702C216.501 29.2158 214.349 28.632 212.107 28.632ZM212.224 58.9272C207.343 58.9272 203.162 57.2245 199.797 53.8661C196.433 50.5076 194.727 46.3848 194.727 41.6156C194.727 38.4421 195.502 35.4603 197.035 32.7481C198.567 30.0337 200.686 27.8787 203.335 26.3388C205.982 24.801 208.887 24.0233 211.967 24.0233C216.948 24.0233 221.18 25.717 224.545 29.0621C227.909 32.4072 229.617 36.579 229.617 41.4641C229.617 46.3045 227.913 50.4697 224.558 53.8438C221.2 57.2178 217.052 58.9272 212.224 58.9272ZM246.007 58.9276C243.944 58.9276 242.043 58.366 240.36 57.2584C238.696 56.1642 237.157 54.3323 235.783 51.8118C235.587 51.4552 235.707 51.0073 236.056 50.7955L238.749 49.1754C239.118 48.9525 239.598 49.084 239.802 49.4651C241.548 52.6854 243.533 54.3189 245.705 54.3189C246.637 54.3189 247.526 54.0961 248.343 53.6615C249.158 53.2269 249.757 52.6675 250.177 51.9499C250.599 51.2257 250.806 50.4813 250.806 49.6746C250.806 48.7631 250.499 47.8806 249.866 46.9802C248.925 45.6386 247.155 43.9806 244.603 42.0484C241.876 39.9825 240.211 38.5094 239.516 37.5445C238.308 35.9287 237.69 34.1392 237.69 32.236C237.69 30.725 238.059 29.3233 238.785 28.073C239.511 26.8183 240.548 25.8177 241.865 25.0979C243.171 24.3847 244.608 24.0215 246.136 24.0215C247.754 24.0215 249.289 24.4293 250.697 25.2338C252.105 26.0383 253.53 27.4468 255.058 29.5417C255.303 29.8759 255.234 30.3439 254.905 30.5935L252.322 32.5614C251.987 32.8154 251.512 32.7486 251.259 32.4143C250.133 30.9145 249.18 29.9272 248.427 29.4748C247.701 29.038 246.931 28.8263 246.071 28.8263C244.985 28.8263 244.132 29.1383 243.462 29.7823C242.8 30.4175 242.478 31.1774 242.478 32.1067C242.478 32.6884 242.602 33.2611 242.844 33.8071C243.091 34.3687 243.568 35.0039 244.259 35.697C244.519 35.9488 245.434 36.6998 248.265 38.8014C251.108 40.9051 253.013 42.7437 254.092 44.4218C255.187 46.1267 255.742 47.8717 255.742 49.6099C255.742 52.1193 254.785 54.3234 252.898 56.1619C251.014 57.9983 248.698 58.9276 246.007 58.9276ZM187.259 58.1278H183.378C183.167 58.1278 182.978 57.9985 182.898 57.8024L177.977 45.9464C177.855 45.6411 177.426 45.6411 177.304 45.9464L172.367 57.8024C172.288 57.9985 172.097 58.1278 171.886 58.1278H168.002C167.624 58.1278 167.373 57.7355 167.533 57.3901L174.613 41.614C174.806 41.1995 174.806 40.7182 174.615 40.3036L168.235 25.9583C167.991 25.4279 168.379 24.8218 168.963 24.8218H172.23C172.545 24.8218 172.829 25.0134 172.945 25.3076L177.304 35.8955C177.431 36.2209 177.89 36.2209 178.019 35.8955L182.407 25.3009C182.523 25.0112 182.8 24.8218 183.111 24.8218H186.413C186.969 24.8218 187.335 25.399 187.102 25.9026L180.684 40.2814C180.491 40.7003 180.491 41.1817 180.684 41.6007L187.73 57.3923C187.888 57.7355 187.637 58.1278 187.259 58.1278ZM103.756 25.7246C103.756 25.2276 104.158 24.822 104.656 24.822H116.083C121.706 24.822 126.263 29.3972 126.263 35.04V35.3163C126.263 41.0259 121.651 45.6547 115.961 45.6547H109.006C108.675 45.6547 108.406 45.9243 108.406 46.2564V57.2254C108.406 57.7246 108.005 58.128 107.507 58.128H104.656C104.158 58.128 103.756 57.7246 103.756 57.2254V25.7246ZM108.406 40.3863C108.406 40.7184 108.675 40.988 109.006 40.988H116.576C119.359 40.988 121.615 38.7238 121.615 35.9336V34.6366C121.615 31.793 119.317 29.4886 116.483 29.4886H109.006C108.675 29.4886 108.406 29.7583 108.406 30.0903V40.3863ZM156.666 58.1271C156.346 58.1271 156.053 57.9421 155.918 57.6502L153.413 52.315C153.275 52.0253 152.982 51.8381 152.66 51.8381H137.029C136.709 51.8381 136.416 52.023 136.278 52.315L133.76 57.6524C133.622 57.9421 133.331 58.1271 133.009 58.1271H129.64C129.032 58.1271 128.63 57.492 128.89 56.9393L143.786 25.298C143.924 25.0083 144.215 24.8211 144.537 24.8211H145.218C145.543 24.8211 145.836 25.0083 145.971 25.3025L160.674 56.9437C160.932 57.4942 160.53 58.1271 159.922 58.1271H156.666ZM138.954 46.6433C138.805 46.9553 139.034 47.3163 139.378 47.3163H150.271C150.639 47.3163 150.883 46.9308 150.726 46.5965L145.343 35.1349C145.152 34.7271 144.574 34.7271 144.383 35.1327L138.954 46.6433Z" fill="#BDBFC1"/>
</svg>
